<svg width="24" height="24" viewBox="0 0 24 24" fill="none" xmlns="http://www.w3.org/2000/svg">
<path d="M6 22C5.46957 22 4.96086 21.7893 4.58579 21.4142C4.21071 21.0391 4 20.5304 4 20V4C4 3.46957 4.21071 2.96086 4.58579 2.58579C4.96086 2.21072 5.46957 2 6 2H14C14.3166 1.99949 14.6301 2.06161 14.9225 2.18277C15.215 2.30394 15.4806 2.48176 15.704 2.706L19.292 6.294C19.5168 6.51751 19.6952 6.78335 19.8167 7.07616C19.9382 7.36898 20.0005 7.68297 20 8V20C20 20.5304 19.7893 21.0391 19.4142 21.4142C19.0391 21.7893 18.5304 22 18 22H6Z" stroke="#2F2B69" stroke-width="1.5" stroke-linecap="round" stroke-linejoin="round"/>
<path d="M8 9H15.8" stroke="#2F2B69" stroke-width="0.9" stroke-linecap="round"/>
<path d="M8 12H14.7517" stroke="#2F2B69" stroke-width="0.9" stroke-linecap="round"/>
<path d="M8 15H13.4" stroke="#2F2B69" stroke-width="0.9" stroke-linecap="round"/>
</svg>
