<svg width="48" height="48" viewBox="0 0 48 48" fill="none" xmlns="http://www.w3.org/2000/svg">
<rect width="48" height="48" rx="24" fill="#398151" fill-opacity="0.1"/>
<path d="M33.9197 35.3333C31.407 35.3333 28.8827 34.7491 26.3467 33.5807C23.8109 32.4122 21.481 30.764 19.357 28.636C17.2332 26.5078 15.5871 24.1778 14.4187 21.646C13.2502 19.1144 12.666 16.5923 12.666 14.0797C12.666 13.6759 12.7993 13.3394 13.066 13.0703C13.3327 12.8012 13.666 12.6667 14.066 12.6667H18.4147C18.7513 12.6667 19.0483 12.7766 19.3057 12.9963C19.563 13.2159 19.7267 13.4872 19.7967 13.8103L20.561 17.7333C20.6139 18.0973 20.6028 18.4101 20.5277 18.6717C20.4523 18.9332 20.3172 19.1529 20.1223 19.3307L17.043 22.3283C17.5386 23.2359 18.1048 24.0944 18.7417 24.904C19.3783 25.7133 20.0677 26.4863 20.8097 27.223C21.5412 27.9548 22.319 28.6343 23.143 29.2617C23.967 29.889 24.8568 30.4728 25.8123 31.013L28.8043 27.995C29.013 27.7779 29.2657 27.6257 29.5623 27.5383C29.8588 27.4512 30.1669 27.4299 30.4867 27.4743L34.189 28.2283C34.5257 28.3172 34.8005 28.489 35.0133 28.7437C35.2262 28.9983 35.3327 29.2872 35.3327 29.6103V33.9333C35.3327 34.3333 35.1981 34.6667 34.929 34.9333C34.6599 35.2 34.3235 35.3333 33.9197 35.3333ZM16.0967 20.436L18.4763 18.159C18.519 18.1248 18.5468 18.0778 18.5597 18.018C18.5726 17.9582 18.5705 17.9027 18.5533 17.8513L17.9737 14.8717C17.9566 14.8034 17.9267 14.7522 17.884 14.718C17.8413 14.6838 17.7858 14.6667 17.7173 14.6667H14.866C14.8147 14.6667 14.7719 14.6838 14.7377 14.718C14.7037 14.7522 14.6867 14.795 14.6867 14.8463C14.7549 15.7574 14.904 16.683 15.134 17.623C15.3638 18.5632 15.6847 19.5009 16.0967 20.436ZM27.6967 31.959C28.5805 32.371 29.5022 32.686 30.462 32.904C31.422 33.1218 32.319 33.2512 33.153 33.2923C33.2043 33.2923 33.2471 33.2752 33.2813 33.241C33.3156 33.2068 33.3327 33.164 33.3327 33.1127V30.3077C33.3327 30.2392 33.3156 30.1837 33.2813 30.141C33.2471 30.0983 33.1959 30.0684 33.1277 30.0513L30.3277 29.482C30.2763 29.4649 30.2315 29.4628 30.193 29.4757C30.1546 29.4886 30.1139 29.5163 30.071 29.559L27.6967 31.959Z" fill="#1A1A1A"/>
</svg>
