<svg width="19" height="15" viewBox="0 0 19 15" fill="none" xmlns="http://www.w3.org/2000/svg">
<path d="M1.80775 15C1.30258 15 0.875 14.825 0.525 14.475C0.175 14.125 0 13.6974 0 13.1923V1.80775C0 1.30258 0.175 0.875 0.525 0.525C0.875 0.175 1.30258 0 1.80775 0H17.1923C17.6974 0 18.125 0.175 18.475 0.525C18.825 0.875 19 1.30258 19 1.80775V13.1923C19 13.6974 18.825 14.125 18.475 14.475C18.125 14.825 17.6974 15 17.1923 15H1.80775ZM9.5 8.05775L1.5 2.94225V13.1923C1.5 13.2821 1.52883 13.3558 1.5865 13.4135C1.64417 13.4712 1.71792 13.5 1.80775 13.5H17.1923C17.2821 13.5 17.3558 13.4712 17.4135 13.4135C17.4712 13.3558 17.5 13.2821 17.5 13.1923V2.94225L9.5 8.05775ZM9.5 6.5L17.3463 1.5H1.65375L9.5 6.5ZM1.5 2.94225V1.5V13.1923C1.5 13.2821 1.52883 13.3558 1.5865 13.4135C1.64417 13.4712 1.71792 13.5 1.80775 13.5H1.5V2.94225Z" fill="#191636"/>
</svg>
